<svg class="i-linkedin" xmlns="http://www.w3.org/2000/svg" viewBox="0 0 42.66 42.57">
    <path fill="none" stroke="#036db2" d="M19.44.5a20.83,20.83,0,1,0,3.79,0" stroke-linecap="round" stroke-linejoin="round"/>
    <path fill="#036db2" fill-rule="evenodd" d="M13.2,11.64a2.19,2.19,0,1,1,0,4.35h0a2.19,2.19,0,0,1-2.36-2.17A2.21,2.21,0,0,1,13.2,11.64Zm12.86,5.8c2.81,0,5,1.8,5,5.69v7H26.6V23.61c0-1.7-.7-2.86-2.25-2.86a2.26,2.26,0,0,0-2.14,1.54,2.86,2.86,0,0,0-.1,1V30.1H17.67s.06-11.49,0-12.54h4.44v2C22.38,18.67,23.8,17.44,26.06,17.44Zm-14.77.12h4V30.1h-4Z"/>
</svg>