<svg class="i-pinterest" xmlns="http://www.w3.org/2000/svg" viewBox="0 0 42.66 42.57">
    <path fill="none" stroke="#036db2" d="M19.44.5a20.83,20.83,0,1,0,3.79,0" stroke-linecap="round" stroke-linejoin="round"/>
    <path fill="#036db2" d="M21.5,7.5a14,14,0,0,0-5.62,26.82,12.32,12.32,0,0,1,.24-3.21l1.8-7.63a5.36,5.36,0,0,1-.45-2.21c0-2.07,1.2-3.62,2.7-3.62a1.87,1.87,0,0,1,1.89,2.1c0,1.28-.82,3.19-1.24,5A2.17,2.17,0,0,0,23,27.4c2.65,0,4.44-3.41,4.44-7.44,0-3.07-2.07-5.36-5.82-5.36a6.63,6.63,0,0,0-6.89,6.7A4,4,0,0,0,15.68,24a.67.67,0,0,1,.2.78c-.06.26-.22.88-.28,1.12a.48.48,0,0,1-.7.35C12.94,25.5,12,23.36,12,21c0-4,3.35-8.75,10-8.75,5.34,0,8.86,3.87,8.86,8,0,5.49-3.06,9.59-7.56,9.59a4,4,0,0,1-3.42-1.74s-.81,3.23-1,3.85a11.81,11.81,0,0,1-1.41,3,14,14,0,1,0,4-27.43"/>
</svg>