<svg class="i-rss" xmlns="http://www.w3.org/2000/svg" viewBox="0 0 42.66 42.57">
    <path fill="none" stroke="#036db2" d="M19.44.5a20.83,20.83,0,1,0,3.79,0" stroke-linecap="round" stroke-linejoin="round"/>
    <path fill="#036db2" d="M29.07,28.07A14.16,14.16,0,0,0,14.93,13.93a1.57,1.57,0,0,1,0-3.14A17.31,17.31,0,0,1,32.21,28.07a1.57,1.57,0,0,1-3.14,0Z"/>
    <path fill="#036db2" d="M22.79,28.07a7.87,7.87,0,0,0-7.86-7.86,1.57,1.57,0,0,1,0-3.14,11,11,0,0,1,11,11,1.57,1.57,0,0,1-3.14,0Z"/>
    <circle cx="17.02" cy="27.02" r="1.57" fill="#036db2"/>
</svg>