<svg class="i-twitter" xmlns="http://www.w3.org/2000/svg" viewBox="0 0 42.66 42.57">
    <path fill="none" stroke="#036db2" d="M19.44.5a20.83,20.83,0,1,0,3.79,0" stroke-linecap="round" stroke-linejoin="round"/>
    <path fill="#036db2" fill-rule="evenodd" d="M31.68,13.67A8.31,8.31,0,0,1,29,14.73a4.17,4.17,0,0,0-3.09-1.37,4.28,4.28,0,0,0-4.23,4.34,4.42,4.42,0,0,0,.11,1,11.9,11.9,0,0,1-8.72-4.53,4.41,4.41,0,0,0-.57,2.18,4.36,4.36,0,0,0,1.88,3.61,4.14,4.14,0,0,1-1.92-.54v.05a4.31,4.31,0,0,0,3.39,4.25,4,4,0,0,1-1.11.15,4.12,4.12,0,0,1-.8-.08,4.24,4.24,0,0,0,3.95,3,8.35,8.35,0,0,1-5.25,1.86,8.47,8.47,0,0,1-1-.06,11.77,11.77,0,0,0,6.48,1.95c7.78,0,12-6.61,12-12.34,0-.19,0-.38,0-.56a8.68,8.68,0,0,0,2.11-2.24,8.28,8.28,0,0,1-2.43.68,4.33,4.33,0,0,0,1.86-2.4"/>
</svg>