<svg class="i-logo" xmlns="http://www.w3.org/2000/svg" viewBox="0 0 290.25 103.95">
	<path fill="#00a0df" d="M0,47.41V0H11.12V47.41Z"/>
	<path fill="#00a0df" d="M24.4,12v4.43h.13c1-2.72,3.86-5.44,7-5.44,4.74,0,9,2.59,9,7.4v29H30.46V22.13c-.13-1.64-.76-3-2.65-2.91a2.58,2.58,0,0,0-2.72,2.91V47.41H15V12Z"/>
	<path fill="#00a0df" d="M46.82,19.34h-4V12.07h4V9c.13-6.76,3.41-9,9.92-9h4.43V7.27H59c-1.14,0-2.15.32-2.15,1.2v3.6h4.3v7.27h-4.3V47.41h-10Z"/>
	<path fill="#00a0df" d="M99.23,102.83V57h13.92c8.12,0,14.47,2.62,14.47,11.84,0,4-1.47,7.63-5.19,9.64v.12c4.88,2.81,5.92,5.25,5.92,10.93,0,9.28-5.25,13.25-14,13.25H99.23ZM110,94.59c5.37-.13,7.63.24,7.63-5.92,0-5.31-3.05-5.19-7.63-5.37ZM110,75c4.7-.3,6.9,0,6.9-5.43,0-4.52-3.11-4.34-6.9-4.34Z"/>
	<path fill="#00a0df" d="M146.66,102.83V98.62h-.12c-.91,2.62-3.72,5.31-6.78,5.31-5.62,0-8.67-2.57-8.67-7.21V68.65h9.71V93.13c.12,1.59.55,3,2.38,2.87A2.67,2.67,0,0,0,146,93.13V68.65h9.71v34.19h-9.05Z"/>
	<path fill="#00a0df" d="M159.92,102.83V68.65h9.71v34.19h-9.71Zm0-37.54V57h9.71v8.24h-9.71Z"/>
	<path fill="#00a0df" d="M174.34,102.83V57H184v45.78h-9.7Z"/>
	<path fill="#00a0df" d="M203.91,102.83v-4h-.12c-1.77,3.3-4.7,5.07-7.57,5.07-7.08-.25-8.49-6.9-8.49-12.7V79.39c0-5.37,1.89-11.72,8.3-11.72a8.26,8.26,0,0,1,7.08,4.09h.12V57h9.71v45.78h-9ZM197.44,90.5c0,2,0,5.49,2.81,5.49,2.63,0,3-2.62,3-5.92V82c0-2.93-.43-6.47-2.81-6.41-3.11,0-3,3.85-3,6Z"/>
	<path fill="#00a0df" d="M226,87.33v6c0,1.89.85,3.48,3,3.6,3.6.18,3.23-3,3.42-5.92H242c.49,8.79-4.27,12.82-12.7,12.94-7,.06-13.06-2.81-13.06-10.62V79.39c0-8.79,5.55-11.66,13.06-11.72,6.77-.06,13.06,2.5,13.06,9.89v9.77Zm6.72-6.41V77.56a3.35,3.35,0,0,0-3.22-3.48h-.08c-2.75,0-3.42,2.2-3.42,4.58v2.26Z"/>
	<path fill="#00a0df" d="M254.9,68.65v5.19h.1c1.1-3.66,3.48-6.16,7.51-6.16v11a15.89,15.89,0,0,0-2.93-.24c-2.75,0-3.85.55-4,3.36v21.06h-9.71V68.65h9Z"/>
	<path fill="#00a0df" d="M280.65,78.78c-.24-2.32-.12-4.7-3.23-4.7-1.89,0-3.24.85-3.24,2.87,0,1.83,1.52,2.74,3,3.48,6.29,2.87,13.07,4.52,13.07,12.64,0,7.63-5.8,10.87-12.94,10.87-7.69,0-13.07-3.3-12.7-11.54h9.28c-.12,2.38.55,5.13,3.48,5.13,2.08,0,3.48-1,3.48-3.24a3.33,3.33,0,0,0-1.28-2.62c-3.91-2.08-9.34-3.54-12.39-7a9.24,9.24,0,0,1-2.44-6.41c0-7.39,5.86-10.56,12.64-10.56,7.08,0,12.76,3.54,12.39,11.11h-9.1Z"/>
	<path fill="#00a0df" d="M108.8,12v5.37h.13c1.14-3.79,3.6-6.38,7.77-6.38V22.38a16.56,16.56,0,0,0-3-.25c-2.84,0-4,.57-4.17,3.48v21.8H99.44V12Z"/>
	<path fill="#00a0df" d="M130,12v4.11h.13A9.41,9.41,0,0,1,137.62,11a7.54,7.54,0,0,1,7.46,4.68h.13C147,12.52,149.69,11,152.54,11c4.74,0,9,2.59,9,7.4v29H151.47V22.13c-.13-1.64-.76-3-2.66-2.91a2.58,2.58,0,0,0-2.72,2.91V47.41H136V22.13c-.32-1.52-.69-2.91-2.4-2.91-2,0-2.84,1-3,2.91V47.41h-10V12Z"/>
	<path fill="#00a0df" d="M183,44.25c-2.53,2.79-4.68,4.3-8.66,4.3-5.69,0-9.23-3.85-9.23-9.48,0-8,4.36-10.56,8.79-12s8.72-1.9,8.72-5.69c0-2-1.14-3.67-3.16-3.67-3.67,0-3.67,2.53-3.86,5.5h-10c-.44-8.85,5.5-12.2,13.59-12.2,9.93,0,13.53,3,13.53,10.81V43.49a12.06,12.06,0,0,0,.82,3.92h-9.8Zm-.38-14c-2,1.08-3.79,1.64-5.06,2.59a5.09,5.09,0,0,0-2.34,4.55A3.5,3.5,0,0,0,179,41.15c3,0,3.6-3.1,3.67-5.37V30.22Z"/>
	<path fill="#00a0df" d="M195.1,19.28V12h4V1.9h10.06V12H214v7.27h-4.8V37.93c0,2,.89,2.47,2.21,2.47a12.22,12.22,0,0,1,2.59-.13v7.08a43.61,43.61,0,0,1-6.45.57c-5.44,0-8.41-2.78-8.41-8.16V19.28Z"/>
	<path fill="#00a0df" d="M218.93,47.41V12h10V47.4h-10Zm0-38.88V0h10V8.53Z"/>
	<path fill="#00a0df" d="M233.21,23.14c0-9.1,5.38-12.14,13.15-12.14,8.85,0,13.15,4.17,13.15,12.14V37.55c-.51,8-5.5,11-13.15,11-7.21,0-13.15-2.91-13.15-11V23.14Zm10.05,15c.19,2,1,3.1,3.1,3.1s2.91-1.07,3.1-3.1V22.38c0-2.27-.76-4.11-3.1-4.11s-3.1,1.83-3.1,4.11V38.14Z"/>
	<path fill="#00a0df" d="M272.48,12v4.43h.13c1-2.72,3.86-5.44,7-5.44,4.74,0,9,2.59,9,7.4v29H278.55V22.13c-.13-1.64-.76-3-2.65-2.91a2.58,2.58,0,0,0-2.72,2.91V47.41h-10V12Z"/>
	<path fill="#00a0df" d="M83,11.14a19.25,19.25,0,0,0-4.14-.45h-1L65.72,32h5.17Z"/>
	<path fill="#00a0df" d="M70.61,47.2A19.19,19.19,0,0,1,75,11.07l-3.52,6A14.72,14.72,0,0,0,72.84,43.3Z"/>
	<path fill="#00a0df" d="M82.15,48.78A19.19,19.19,0,0,0,92,16l-2.35,4A14.72,14.72,0,0,1,85.5,43Z"/>
	<path fill="#00a0df" d="M71.94 37.3L77.08 37.3 95.53 4.82 90.4 4.82 71.94 37.3"/>
	<path fill="#00a0df" d="M91.16 28.39L86.06 28.39 72.17 52.48 77.33 52.48 91.16 28.39"/>
	<path fill="none" d="M77.33 52.48L72.18 52.48"/>
</svg>