<svg class="i-play-fill" xmlns="http://www.w3.org/2000/svg" viewBox="0 0 52.5 52.5">
    <circle cx="26.25" cy="26.25" r="26" fill="#fff"/>
    <path fill="#007ac9" fill-rule="evenodd" d="M505,143.75A26.28,26.28,0,0,0,478.75,170h0a.8.8,0,0,0,.8.8l.17,0h21a.8.8,0,0,0,.8-.8V156l13.64,13.64L501.48,183.3v-7.16a.8.8,0,0,0-1.61,0v9.1a.8.8,0,0,0,1.37.57l15.58-15.58a.8.8,0,0,0,0-1.14L501.24,153.5a.8.8,0,0,0-1.37.57v15.11H480.38a24.6,24.6,0,1,1,1.78,10.08.8.8,0,1,0-1.49.6A26.25,26.25,0,1,0,505,143.75" transform="translate(-478.75 -143.75)"/>
</svg>