<svg class="i-financial" xmlns="http://www.w3.org/2000/svg" viewBox="0 0 59.72 56.54">
    <path fill="#1e9bcf" fill-rule="evenodd" d="M549.85,381.54a.86.86,0,0,1-.87-.87V326.73H538v53.94a.87.87,0,0,1-.87.87h-9.27a.86.86,0,0,1-.87-.87V346h-12v34.15a.86.86,0,0,1-.87.87h-8.19a.86.86,0,0,1-.87-.87V359.87H492.73v14.27a.87.87,0,1,1-1.73,0V359a.87.87,0,0,1,.87-.87h14a.86.86,0,0,1,.87.87v20.31h6.46V345.17a.87.87,0,0,1,.87-.87h13.77a.87.87,0,0,1,.87.87v34.63h7.54V325.87a.86.86,0,0,1,.87-.87h12.74a.86.86,0,0,1,.87.87v54.81a.86.86,0,0,1-.87.87" transform="translate(-491 -325)"/>
</svg>