<svg class="i-higherEd" xmlns="http://www.w3.org/2000/svg" viewBox="0 0 72 48.88">
    <path fill="#1e9bcf" fill-rule="evenodd" d="M632.5,253.47l-35.07-18.36a.94.94,0,0,0-.87,0L561.5,253.47a.93.93,0,0,0,0,1.65l5.86,3.07v7l-3.11,7.64a4.64,4.64,0,0,0,0,3.5,4.59,4.59,0,0,0,6,2.53,4.64,4.64,0,0,0,2.53-6L571.36,269a.93.93,0,0,0-1.74.66l1.44,3.81a2.77,2.77,0,0,1-1.5,3.61,2.7,2.7,0,0,1-2.09,0,2.73,2.73,0,0,1-1.48-1.5,2.78,2.78,0,0,1,0-2.1l3.17-7.81a.93.93,0,0,0,.07-.35V258.4l21.87-3.07a6.17,6.17,0,1,0-.23-1.85l-22.46,3.16-4.47-2.34L597,237l33.06,17.31L597,271.6l-20.87-10.93a.93.93,0,0,0-1.37.83v13a.93.93,0,0,0,.2.58c.28.36,7.1,8.77,22,8.77s21.27-8.06,21.53-8.41a.93.93,0,0,0,.19-.57v-5.11a.93.93,0,0,0-1.87,0v4.77c-1.12,1.27-7.2,7.44-19.86,7.44s-19.18-6.51-20.37-7.83V263l19.94,10.44a.93.93,0,0,0,.87,0l35.07-18.36a.93.93,0,0,0,0-1.65M597,249.36a4.3,4.3,0,1,1-4.27,4.3,4.29,4.29,0,0,1,4.27-4.3" transform="translate(-561 -235)"/>
</svg>