<svg class="i-manufacturing" xmlns="http://www.w3.org/2000/svg" viewBox="0 0 60 60">
    <path fill="#1e9bcf" fill-rule="evenodd" d="M601.49,389h-9a2.32,2.32,0,0,1-2.32-2.32v-6.93a21.82,21.82,0,0,1-3-1.28l-4.92,4.92a2.38,2.38,0,0,1-3.28,0L572.61,377a2.32,2.32,0,0,1,0-3.28l5-5a21.89,21.89,0,0,1-1.21-3h-7.05a2.32,2.32,0,0,1-2.32-2.32v-9a2.32,2.32,0,0,1,2.32-2.32h7.05a21.89,21.89,0,0,1,1.21-3l-5-5a2.32,2.32,0,0,1,0-3.28l6.35-6.35a2.38,2.38,0,0,1,3.28,0l4.92,4.92a21.78,21.78,0,0,1,3-1.28v-6.93a2.32,2.32,0,0,1,2.32-2.32h9a2.32,2.32,0,0,1,2.32,2.32v6.83a21.83,21.83,0,0,1,3.15,1.26l4.8-4.8a2.38,2.38,0,0,1,3.28,0l6.35,6.35a2.32,2.32,0,0,1,0,3.28L616.64,349a21.8,21.8,0,0,1,1.33,3.2h6.71a2.32,2.32,0,0,1,2.32,2.32v9a2.32,2.32,0,0,1-2.32,2.32h-7.39a.92.92,0,0,1,0-1.84h7.39a.49.49,0,0,0,.48-.48v-9a.49.49,0,0,0-.48-.48h-7.39a.92.92,0,0,1-.88-.66,19.94,19.94,0,0,0-1.71-4.1.92.92,0,0,1,.15-1.1l5.23-5.23a.49.49,0,0,0,0-.68l-6.35-6.35a.49.49,0,0,0-.68,0l-5.28,5.28a.92.92,0,0,1-1.09.16,20,20,0,0,0-4.06-1.63.92.92,0,0,1-.67-.88v-7.52a.49.49,0,0,0-.48-.48h-9a.49.49,0,0,0-.48.48v7.6a.92.92,0,0,1-.65.88,20,20,0,0,0-3.94,1.67.92.92,0,0,1-1.1-.15l-5.4-5.4a.48.48,0,0,0-.68,0l-6.35,6.35a.49.49,0,0,0,0,.68l5.45,5.45a.92.92,0,0,1,.16,1.09,20,20,0,0,0-1.59,3.89.92.92,0,0,1-.88.66h-7.73a.49.49,0,0,0-.48.48v9a.49.49,0,0,0,.48.48H577a.92.92,0,0,1,.88.66,20,20,0,0,0,1.59,3.89.92.92,0,0,1-.16,1.09l-5.45,5.45a.49.49,0,0,0,0,.68l6.35,6.35a.48.48,0,0,0,.68,0l5.4-5.4a.92.92,0,0,1,1.1-.15,19.92,19.92,0,0,0,3.94,1.67.92.92,0,0,1,.65.88v7.6a.49.49,0,0,0,.48.48h9a.49.49,0,0,0,.48-.48v-7.52a.92.92,0,0,1,.67-.88,20,20,0,0,0,4.06-1.63.92.92,0,0,1,1.09.16l5.28,5.28a.48.48,0,0,0,.68,0l6.35-6.35a.49.49,0,0,0,0-.68l-11.48-11a.92.92,0,0,1-.17-1.1h0a11.95,11.95,0,1,0-4.59,5.94.92.92,0,0,1,1,1.52,13.76,13.76,0,1,1,5.44-7.27l11.06,10.59a2.32,2.32,0,0,1,0,3.29L615,383.39a2.38,2.38,0,0,1-3.28,0l-4.8-4.8a21.85,21.85,0,0,1-3.15,1.26v6.83a2.32,2.32,0,0,1-2.32,2.32" transform="translate(-567 -329)"/>
</svg>