<svg class="i-retail" xmlns="http://www.w3.org/2000/svg" viewBox="0 0 20 19.63">
    <path fill="#1e9bcf" fill-rule="evenodd" d="M606.94,401.87a.32.32,0,0,0-.25-.13l-15.34.2-3.83-3.85a.31.31,0,1,0-.43.43l3.92,3.94a.32.32,0,0,0,.22.09l15-.19-2.05,6.13H589.7a.31.31,0,0,0-.29.21l-1.24,3.71a.31.31,0,0,0,.29.4h1.29a2.7,2.7,0,1,0,3.41,0h7.66a2.1,2.1,0,1,1-2.09,2.1.31.31,0,1,0-.61,0,2.7,2.7,0,1,0,2.7-2.72H588.88l1-3.09h14.51a.31.31,0,0,0,.29-.21l2.26-6.74a.31.31,0,0,0,0-.28m-13.39,13a2.09,2.09,0,1,1-2.09-2.1,2.1,2.1,0,0,1,2.09,2.1" transform="translate(-587 -398)"/>
</svg>