<svg class="i-ib" xmlns="http://www.w3.org/2000/svg" viewBox="0 0 424 423.98">
    <path fill="none" stroke="#00a0df" stroke-width="4" d="M568.77,609.25,542.27,590,437.65,734c-13.82-.54-27.28-1.62-40.88-4.95L548.09,520.78l-26.91-19.55L364.1,717.45a195.24,195.24,0,0,1-29.88-15.83l193.6-266.48-27.05-19.6L307.36,681.78c-8.9-7.84-15.56-16.37-22.82-25.26L440.17,442.33l-27-19.57L263.8,628.47A210.25,210.25,0,0,1,247.35,592L349.83,451.44l-27.06-19.66L237.51,549.06a209.39,209.39,0,0,1,38.62-148.51c68.16-93.83,199.49-114.6,293.3-46.38s114.63,199.59,46.45,293.38a209,209,0,0,1-135.2,83.68Z" transform="translate(-234 -312)" stroke-linecap="round" stroke-linejoin="round"/>
</svg>